# xmcd
#
# Track frame offsets: 
#        182
#        36030
#        51825
#        86362
#        112425
#        141505
#        169500
#        187637
#
# Disc length: 2805 seconds
#
# Revision: 0
# Processed by: cddbd v1.4PL0 Copyright (c) Steve Scherf et al.
# Submitted via: ExactAudioCopy v0.90b4
#
DISCID=660af308
DTITLE=Gary Moore - Blues from a Gun CD2
DYEAR=1992
DGENRE=Blues
TTITLE0=Still got the Blues
TTITLE1=Too Tired (J. "Guitar" Watson)
TTITLE2=The Sky is Crying
TTITLE3=Further on up the Road
TTITLE4=King of the Blues
TTITLE5=The Blues is all Right (M. Campbell)
TTITLE6=Stop Messin' Around (P. Green)
TTITLE7=Jumpin' at Shadows (D. Bennet)
EXTD=
EXTT0=
EXTT1=
EXTT2=
EXTT3=
EXTT4=
EXTT5=
EXTT6=
EXTT7=
PLAYORDER=
